<svg width="1473" height="237" viewBox="0 0 1473 237" fill="none" xmlns="http://www.w3.org/2000/svg">
<path d="M124.446 80.2301C123.736 72.4176 120.575 66.3452 114.964 62.0128C109.425 57.6094 101.506 55.4077 91.2074 55.4077C84.3892 55.4077 78.7074 56.2955 74.1619 58.071C69.6165 59.8466 66.2074 62.2969 63.9347 65.4219C61.6619 68.4759 60.4901 71.9915 60.419 75.9688C60.277 79.2358 60.9162 82.1122 62.3367 84.598C63.8281 87.0838 65.9588 89.2855 68.7287 91.2031C71.5696 93.0497 74.9787 94.6832 78.956 96.1037C82.9332 97.5241 87.4077 98.767 92.3793 99.8324L111.129 104.094C121.925 106.438 131.442 109.562 139.68 113.469C147.99 117.375 154.95 122.027 160.561 127.425C166.243 132.822 170.54 139.037 173.452 146.068C176.364 153.099 177.855 160.983 177.926 169.719C177.855 183.497 174.375 195.322 167.486 205.195C160.597 215.067 150.689 222.631 137.763 227.886C124.908 233.142 109.389 235.77 91.2074 235.77C72.9545 235.77 57.0455 233.036 43.4801 227.567C29.9148 222.098 19.3679 213.788 11.8395 202.638C4.31108 191.487 0.440341 177.389 0.227273 160.344H50.7244C51.1506 167.375 53.0327 173.234 56.3707 177.922C59.7088 182.609 64.2898 186.161 70.1136 188.575C76.0085 190.99 82.8267 192.197 90.5682 192.197C97.6705 192.197 103.707 191.239 108.679 189.321C113.722 187.403 117.592 184.74 120.291 181.331C122.99 177.922 124.375 174.016 124.446 169.612C124.375 165.493 123.097 161.977 120.611 159.065C118.125 156.082 114.29 153.526 109.105 151.395C103.991 149.193 97.4574 147.169 89.5028 145.322L66.7045 139.996C47.8125 135.663 32.9332 128.668 22.0668 119.009C11.2003 109.278 5.80256 96.1392 5.87358 79.5909C5.80256 66.0966 9.42472 54.2713 16.7401 44.1151C24.0554 33.9588 34.1761 26.0398 47.1023 20.358C60.0284 14.6761 74.7656 11.8352 91.3139 11.8352C108.217 11.8352 122.884 14.7116 135.312 20.4645C147.812 26.1463 157.507 34.1364 164.396 44.4347C171.286 54.733 174.801 66.6648 174.943 80.2301H124.446ZM170.422 57.6449V14.8182H354.832V57.6449H288.675V233H236.686V57.6449H170.422ZM541.673 93.8665H488.406C487.696 88.3977 486.24 83.4616 484.038 79.0582C481.836 74.6548 478.924 70.8906 475.302 67.7656C471.68 64.6406 467.383 62.2614 462.412 60.6278C457.511 58.9233 452.078 58.071 446.112 58.071C435.529 58.071 426.403 60.6633 418.733 65.848C411.133 71.0327 405.274 78.5256 401.154 88.3267C397.106 98.1278 395.082 109.989 395.082 123.909C395.082 138.398 397.142 150.543 401.261 160.344C405.451 170.074 411.311 177.425 418.839 182.396C426.439 187.297 435.423 189.747 445.792 189.747C451.616 189.747 456.907 189.001 461.666 187.51C466.495 186.018 470.721 183.852 474.343 181.011C478.037 178.099 481.055 174.584 483.399 170.464C485.814 166.274 487.483 161.551 488.406 156.295L541.673 156.615C540.75 166.274 537.944 175.791 533.257 185.166C528.64 194.541 522.284 203.099 514.187 210.841C506.091 218.511 496.218 224.619 484.571 229.165C472.994 233.71 459.713 235.983 444.727 235.983C424.983 235.983 407.298 231.651 391.673 222.986C376.119 214.25 363.832 201.537 354.812 184.847C345.792 168.156 341.282 147.844 341.282 123.909C341.282 99.9034 345.863 79.5554 355.025 62.8651C364.187 46.1747 376.581 33.4972 392.206 24.8324C407.831 16.1676 425.338 11.8352 444.727 11.8352C457.937 11.8352 470.153 13.6818 481.375 17.375C492.596 20.9972 502.468 26.3239 510.991 33.3551C519.514 40.3153 526.439 48.8736 531.765 59.0298C537.092 69.1861 540.395 80.7983 541.673 93.8665ZM556.849 233V69.3636H607.452V99.1932H609.157C612.14 88.3977 617.005 80.3722 623.752 75.1165C630.499 69.7898 638.347 67.1264 647.296 67.1264C649.711 67.1264 652.197 67.304 654.754 67.6591C657.31 67.9432 659.69 68.4048 661.891 69.044V114.321C659.406 113.469 656.138 112.794 652.09 112.297C648.113 111.8 644.562 111.551 641.437 111.551C635.258 111.551 629.683 112.936 624.711 115.706C619.81 118.405 615.94 122.205 613.099 127.105C610.329 131.935 608.944 137.616 608.944 144.151V233H556.849ZM736.114 236.089C718.997 236.089 704.224 232.716 691.795 225.969C679.438 219.151 669.92 209.456 663.244 196.885C656.639 184.243 653.337 169.222 653.337 151.821C653.337 134.918 656.675 120.145 663.351 107.503C670.027 94.7898 679.438 84.9176 691.582 77.8864C703.727 70.7841 718.038 67.233 734.516 67.233C746.163 67.233 756.817 69.044 766.476 72.6662C776.135 76.2883 784.48 81.6506 791.511 88.7528C798.543 95.8551 804.011 104.626 807.918 115.067C811.824 125.436 813.777 137.332 813.777 150.756V163.753H671.554V133.497H765.304C765.233 127.957 763.919 123.021 761.362 118.689C758.805 114.357 755.29 110.983 750.815 108.568C746.412 106.082 741.334 104.839 735.581 104.839C729.757 104.839 724.537 106.153 719.92 108.781C715.304 111.338 711.646 114.854 708.947 119.328C706.249 123.732 704.828 128.739 704.686 134.349V165.138C704.686 171.814 706 177.673 708.628 182.716C711.256 187.687 714.984 191.558 719.814 194.328C724.643 197.098 730.396 198.483 737.072 198.483C741.689 198.483 745.879 197.844 749.643 196.565C753.408 195.287 756.639 193.405 759.338 190.919C762.037 188.433 764.061 185.379 765.411 181.757L813.244 183.142C811.256 193.866 806.888 203.206 800.141 211.161C793.464 219.044 784.693 225.187 773.827 229.591C762.96 233.923 750.389 236.089 736.114 236.089ZM871.513 235.77C861.073 235.77 851.804 234.03 843.708 230.55C835.682 226.999 829.326 221.672 824.638 214.57C820.022 207.396 817.713 198.412 817.713 187.616C817.713 178.526 819.311 170.855 822.507 164.605C825.703 158.355 830.107 153.277 835.718 149.371C841.328 145.464 847.792 142.517 855.107 140.528C862.422 138.469 870.235 137.084 878.544 136.374C887.848 135.521 895.341 134.634 901.023 133.71C906.705 132.716 910.824 131.331 913.381 129.555C916.009 127.709 917.323 125.116 917.323 121.778V121.246C917.323 115.777 915.441 111.551 911.676 108.568C907.912 105.585 902.834 104.094 896.442 104.094C889.553 104.094 884.013 105.585 879.823 108.568C875.632 111.551 872.969 115.67 871.833 120.926L823.786 119.222C825.206 109.278 828.864 100.401 834.759 92.5881C840.725 84.7045 848.892 78.5256 859.262 74.0511C869.702 69.5057 882.238 67.233 896.868 67.233C907.309 67.233 916.932 68.4759 925.739 70.9616C934.546 73.3764 942.216 76.9276 948.75 81.6151C955.284 86.2315 960.327 91.9134 963.878 98.6605C967.5 105.408 969.311 113.114 969.311 121.778V233H920.306V210.202H919.027C916.115 215.741 912.387 220.429 907.841 224.264C903.367 228.099 898.076 230.976 891.968 232.893C885.931 234.811 879.113 235.77 871.513 235.77ZM887.6 201.679C893.211 201.679 898.253 200.543 902.728 198.27C907.273 195.997 910.895 192.872 913.594 188.895C916.293 184.847 917.642 180.159 917.642 174.832V159.278C916.151 160.06 914.34 160.77 912.209 161.409C910.15 162.048 907.877 162.652 905.391 163.22C902.905 163.788 900.348 164.286 897.721 164.712C895.093 165.138 892.571 165.528 890.157 165.884C885.256 166.665 881.066 167.872 877.586 169.506C874.176 171.139 871.549 173.27 869.702 175.898C867.926 178.455 867.039 181.509 867.039 185.06C867.039 190.457 868.956 194.577 872.792 197.418C876.698 200.259 881.634 201.679 887.6 201.679ZM1078.53 69.3636V107.716H975.299V69.3636H1078.53ZM996.925 30.1591H1049.02V181.544C1049.02 184.74 1049.52 187.332 1050.51 189.321C1051.58 191.239 1053.1 192.624 1055.09 193.476C1057.08 194.257 1059.46 194.648 1062.23 194.648C1064.22 194.648 1066.31 194.47 1068.52 194.115C1070.79 193.689 1072.49 193.334 1073.63 193.05L1081.51 230.656C1079.03 231.366 1075.51 232.254 1070.97 233.32C1066.49 234.385 1061.13 235.06 1054.88 235.344C1042.66 235.912 1032.19 234.491 1023.45 231.082C1014.79 227.602 1008.15 222.205 1003.53 214.889C998.985 207.574 996.783 198.376 996.925 187.297V30.1591ZM1090.11 233V69.3636H1142.21V233H1090.11ZM1116.21 50.294C1108.9 50.294 1102.61 47.8793 1097.35 43.0497C1092.1 38.1491 1089.47 32.2543 1089.47 25.3651C1089.47 18.5469 1092.1 12.723 1097.35 7.89346C1102.61 2.99289 1108.9 0.542601 1116.21 0.542601C1123.6 0.542601 1129.88 2.99289 1135.07 7.89346C1140.32 12.723 1142.95 18.5469 1142.95 25.3651C1142.95 32.2543 1140.32 38.1491 1135.07 43.0497C1129.88 47.8793 1123.6 50.294 1116.21 50.294ZM1319.1 69.3636L1262.96 233H1203.3L1147.26 69.3636H1202.13L1232.27 182.077H1233.98L1264.24 69.3636H1319.1ZM1395.29 236.089C1378.18 236.089 1363.4 232.716 1350.98 225.969C1338.62 219.151 1329.1 209.456 1322.42 196.885C1315.82 184.243 1312.52 169.222 1312.52 151.821C1312.52 134.918 1315.85 120.145 1322.53 107.503C1329.21 94.7898 1338.62 84.9176 1350.76 77.8864C1362.91 70.7841 1377.22 67.233 1393.7 67.233C1405.34 67.233 1416 69.044 1425.66 72.6662C1435.31 76.2883 1443.66 81.6506 1450.69 88.7528C1457.72 95.8551 1463.19 104.626 1467.1 115.067C1471 125.436 1472.96 137.332 1472.96 150.756V163.753H1330.73V133.497H1424.48C1424.41 127.957 1423.1 123.021 1420.54 118.689C1417.99 114.357 1414.47 110.983 1410 108.568C1405.59 106.082 1400.51 104.839 1394.76 104.839C1388.94 104.839 1383.72 106.153 1379.1 108.781C1374.48 111.338 1370.83 114.854 1368.13 119.328C1365.43 123.732 1364.01 128.739 1363.87 134.349V165.138C1363.87 171.814 1365.18 177.673 1367.81 182.716C1370.44 187.687 1374.16 191.558 1378.99 194.328C1383.82 197.098 1389.58 198.483 1396.25 198.483C1400.87 198.483 1405.06 197.844 1408.82 196.565C1412.59 195.287 1415.82 193.405 1418.52 190.919C1421.22 188.433 1423.24 185.379 1424.59 181.757L1472.42 183.142C1470.44 193.866 1466.07 203.206 1459.32 211.161C1452.64 219.044 1443.87 225.187 1433.01 229.591C1422.14 233.923 1409.57 236.089 1395.29 236.089Z" fill="white"/>
</svg>
